<svg width="231" height="75" viewBox="0 0 231 75" fill="none" xmlns="http://www.w3.org/2000/svg">
<path d="M18.8796 58.9856C11.3815 58.9856 4.6908 55.7556 -0.000366211 52.641L0.537964 51.7566C5.38293 54.9097 11.5737 57.9474 18.9565 57.9474C26.3778 57.9474 31.0305 53.9099 31.0305 47.5653C31.0305 41.6437 24.4552 37.7216 17.5723 34.0686C9.84338 29.9542 1.76843 24.8785 1.76843 16.6882C1.76843 7.72888 9.65112 1.88416 21.4559 1.88416C27.416 1.88416 33.5299 3.88367 38.1442 7.53662L37.452 8.38257C32.5302 4.61426 26.9546 2.92236 20.8792 2.92236C15.0729 2.92236 10.8047 7.229 10.8047 12.2662C10.8047 17.6495 17.8414 21.7639 24.5706 25.1477C32.9147 29.4159 40.1437 34.2993 40.1437 43.2971C40.1437 53.7946 30.9921 58.9856 18.8796 58.9856ZM86.2432 19.1876H87.8966V74.0588H77.2454V52.9486C73.7078 56.9092 69.2473 58.9856 64.1332 58.9856C54.6355 58.9856 48.7139 51.1798 48.7139 40.1825C48.7139 27.3779 56.8273 18.3417 69.6703 18.3417C74.9767 18.3417 79.168 20.3412 81.8981 23.5327L86.2432 19.1876ZM70.324 55.1788C72.8234 55.1788 75.3228 53.5638 77.2454 51.4874V23.4558C75.5919 20.6488 72.7849 19.3799 70.2855 19.3799C64.5946 19.3799 59.9035 25.8398 59.9035 37.4139C59.9035 48.9496 63.5949 55.1788 70.324 55.1788ZM128.151 19.1876H138.803V58.0627H137.149L130.112 50.2185C126.075 56.3708 119.923 58.9856 113.578 58.9856C106.695 58.9856 101.889 54.5636 101.889 47.6807V19.1876H112.54V47.45C112.54 52.1027 114.885 54.9097 119.423 54.9097C123.114 54.9097 125.921 53.4869 128.151 51.2567V19.1876ZM165.33 58.9856C160.639 58.9856 154.986 57.486 150.949 54.679L151.449 53.7177C155.794 56.9476 161.869 57.9474 165.215 57.9474C170.982 57.9474 173.02 54.4482 173.02 51.2567C173.02 47.4115 169.79 45.0659 165.176 42.7972L163.753 42.1436C158.063 39.4135 151.833 36.0681 151.833 29.339C151.833 21.9177 158.178 18.1879 167.637 18.1879C172.328 18.1879 176.904 19.8029 179.942 21.9946L179.442 22.9175C176.52 20.7257 171.79 19.2261 167.522 19.2261C162.869 19.2261 160.485 22.4176 160.485 25.5322C160.485 29.4543 164.869 31.5692 169.983 34.0302L171.329 34.6838C176.866 37.4524 181.634 40.9131 181.634 47.3346C181.634 54.3713 174.982 58.9856 165.33 58.9856ZM218.928 18.2263C225.772 18.2263 230.617 22.6868 230.617 29.5697V58.0627H219.966V29.8389C219.966 25.1862 217.62 22.3407 213.275 22.3407C209.699 22.3407 206.661 23.725 204.354 25.9937V58.0627H193.703V0H204.354V24.4171C208.892 20.0336 213.814 18.2263 218.928 18.2263Z" fill="white"/>
</svg>
